# xmcd
#
# Track frame offsets: 
#        150
#        16623
#        40446
#        64344
#        81342
#        98865
#        120363
#        139536
#        157509
#        178482
#        198255
#        221628
#
# Disc length: 3218 seconds
#
# Revision: 1
# Processed by: cddbd v1.5.2PL0 Copyright (c) Steve Scherf et al.
# Submitted via: ExactAudioCopy v1.0b3
#
DISCID=9c0c900c
DTITLE=Carl Weathersby - I'm Still Standing Here
DYEAR=2009
DGENRE=Blues
TTITLE0=Ace Of Spades
TTITLE1=I Can Feel It
TTITLE2=I'm Still Here
TTITLE3=Travelin' Man
TTITLE4=I Know I'm Losing You
TTITLE5=Only Getting Second Best
TTITLE6=The Road Of Life
TTITLE7=A Strong Companion
TTITLE8=Love T.K.O.
TTITLE9=Who To Believe
TTITLE10=Feel Like Giving Up
TTITLE11=What Am I
EXTD=
EXTT0=
EXTT1=
EXTT2=
EXTT3=
EXTT4=
EXTT5=
EXTT6=
EXTT7=
EXTT8=
EXTT9=
EXTT10=
EXTT11=
PLAYORDER=
